<svg width="14" height="14" viewBox="0 0 14 14" fill="none" xmlns="http://www.w3.org/2000/svg">
<g clip-path="url(#clip0_2360_22130)">
<path d="M0.171557 8.61319C0.140407 8.4804 0.298605 8.39676 0.395051 8.49321L5.50679 13.6049C5.60323 13.7014 5.5196 13.8596 5.38681 13.8284C2.80721 13.2233 0.776691 11.1928 0.171557 8.61319ZM0.000264789 6.56447C-0.00220534 6.60413 0.0127069 6.64286 0.0408048 6.67096L7.32904 13.9592C7.35714 13.9873 7.39586 14.0022 7.43553 13.9997C7.76721 13.9791 8.09266 13.9353 8.41026 13.8701C8.51729 13.8481 8.55448 13.7166 8.47721 13.6394L0.360633 5.52279C0.283373 5.44552 0.151869 5.48271 0.129889 5.58974C0.0646605 5.90734 0.0209238 6.23278 0.000264789 6.56447ZM0.58953 4.15875C0.566222 4.21109 0.578094 4.27224 0.618601 4.31275L9.68724 13.3814C9.72776 13.4219 9.78891 13.4338 9.84124 13.4105C10.0913 13.2991 10.3336 13.1735 10.5672 13.0347C10.6445 12.9888 10.6564 12.8826 10.5929 12.819L1.18099 3.40714C1.11742 3.34356 1.01121 3.35549 0.965289 3.43278C0.826504 3.66636 0.700909 3.9087 0.58953 4.15875ZM1.77222 2.53036C1.7204 2.47854 1.7172 2.39544 1.76602 2.34079C3.04913 0.904303 4.9156 0 6.99327 0C10.863 0 14 3.13702 14 7.00673C14 9.0844 13.0957 10.9509 11.6592 12.234C11.6046 12.2828 11.5215 12.2796 11.4696 12.2278L1.77222 2.53036Z" fill="#AAAAAA"/>
</g>
<defs>
<clipPath id="clip0_2360_22130">
<rect width="14" height="14" fill="white"/>
</clipPath>
</defs>
</svg>
